<svg xmlns="http://www.w3.org/2000/svg" width="927.825" height="430.531" viewBox="0 0 927.825 430.531">
  <g id="Group_2" data-name="Group 2" transform="translate(-497 -325)">
    <g id="Group_1" data-name="Group 1" transform="translate(497 325)">
      <path id="Path_1" data-name="Path 1" d="M883.774,664.286H530.185V456.8l-1.625-1.045,57.4-55.9A156.8,156.8,0,0,1,694.4,355.189l105.509-.964.152.18,83.955,99.878-.248,2.765Z" transform="translate(-136.087 -234.734)" fill="#f2f2f2"/>
      <rect id="Rectangle_1" data-name="Rectangle 1" width="211.472" height="2" transform="translate(460.692 158.642)" fill="#fff"/>
      <rect id="Rectangle_2" data-name="Rectangle 2" width="211.472" height="2" transform="translate(439.692 179.642)" fill="#fff"/>
      <rect id="Rectangle_371" data-name="Rectangle 371" width="38.44" height="33.977" transform="translate(735.65 317.131)" fill="#fff"/>
      <rect id="Rectangle_372" data-name="Rectangle 372" width="38.44" height="33.438" transform="translate(735.65 258.322)" fill="#fff"/>
      <rect id="Rectangle_3" data-name="Rectangle 3" width="34.47" height="119.3" transform="translate(690.184 122.855)" fill="#f2f2f2"/>
      <path id="Path_2" data-name="Path 2" d="M883.774,664.285H694.549v-137.5a133.786,133.786,0,0,1,31.97-86.746l73.249-85.876L883.773,454.17Z" transform="translate(-136.087 -234.734)" fill="#e6e6e6"/>
      <rect id="Rectangle_374" data-name="Rectangle 374" width="38.44" height="33.977" transform="translate(647.299 326.147)" fill="#fff"/>
      <rect id="Rectangle_375" data-name="Rectangle 375" width="38.44" height="33.438" transform="translate(647.299 267.337)" fill="#fff"/>
      <rect id="Rectangle_378" data-name="Rectangle 378" width="38.44" height="33.977" transform="translate(463.685 317.131)" fill="#fff"/>
      <rect id="Rectangle_379" data-name="Rectangle 379" width="38.44" height="33.438" transform="translate(463.685 258.322)" fill="#fff"/>
      <rect id="Rectangle_4" data-name="Rectangle 4" width="41.83" height="144.8" transform="translate(407.134 57.405)" fill="#f2f2f2"/>
      <path id="Path_3" data-name="Path 3" d="M612.9,664.284H183.948V412.5l-1.908-1.229.45-.438,78.349-76.315a158.222,158.222,0,0,1,109.435-45.072l140.894-1.287.152.18L613.192,409.535l-.292,3.313Z" transform="translate(-136.087 -234.734)" fill="#f2f2f2"/>
      <path id="Path_4" data-name="Path 4" d="M612.9,664.284H383.444V479.407a113.13,113.13,0,0,1,27.034-73.353l100.568-117.9L612.9,409.4Z" transform="translate(-136.087 -234.734)" fill="#e6e6e6"/>
      <rect id="Rectangle_381" data-name="Rectangle 381" width="37.105" height="32.797" transform="translate(363.966 304.151)" fill="#fff"/>
      <rect id="Rectangle_381-2" data-name="Rectangle 381" width="37.105" height="32.797" transform="translate(363.966 247.151)" fill="#fff"/>
      <rect id="Rectangle_385" data-name="Rectangle 385" width="46.657" height="41.239" transform="translate(132.217 293.207)" fill="#fff"/>
      <rect id="Rectangle_386" data-name="Rectangle 386" width="46.657" height="40.585" transform="translate(132.217 221.827)" fill="#fff"/>
      <rect id="Rectangle_387" data-name="Rectangle 387" width="927.825" height="2.285" transform="translate(0 428.03)" fill="#98734e"/>
      <ellipse id="Ellipse_519" data-name="Ellipse 519" cx="33.252" cy="67.848" rx="33.252" ry="67.848" transform="translate(106.013 250.313)" fill="#98734e"/>
      <path id="Path_2702" data-name="Path 2702" d="M278.423,663.952c-13.318-79.9-.134-159.52,0-160.314l2.591.439c-.134.79-13.242,79.988,0,159.444Z" transform="translate(-136.087 -234.734)" fill="#ffdd6b"/>
      <rect id="Rectangle_388" data-name="Rectangle 388" width="34.1" height="2.628" transform="translate(138.469 319.651) rotate(-28.142)" fill="#ffdd6b"/>
      <rect id="Rectangle_389" data-name="Rectangle 389" width="2.628" height="34.101" transform="translate(106.734 313.94) rotate(-61.842)" fill="#ffdd6b"/>
      <ellipse id="Ellipse_520" data-name="Ellipse 520" cx="47.988" cy="97.915" rx="47.988" ry="97.915" transform="translate(10.759 172.496)" fill="#ffdd6b"/>
      <path id="Path_2703" data-name="Path 2703" d="M200.179,665.266c-19.194-115.162-.194-229.9,0-231.051l1.911.324c-.194,1.143-19.138,115.577,0,230.409Z" transform="translate(-136.087 -234.734)" fill="#98734e"/>
      <rect id="Rectangle_390" data-name="Rectangle 390" width="49.213" height="1.939" transform="translate(58.037 273.381) rotate(-28.142)" fill="#98734e"/>
      <rect id="Rectangle_391" data-name="Rectangle 391" width="1.939" height="49.213" transform="translate(12.238 263.511) rotate(-61.842)" fill="#98734e"/>
      <path id="Path_2708" data-name="Path 2708" d="M797.91,308.067l10.519-8.414c-8.172-.9-11.53,3.555-12.9,7.083-6.384-2.651-13.335.823-13.335.823l21.047,7.641a15.925,15.925,0,0,0-5.328-7.134Z" transform="translate(-136.087 -234.734)" fill="#98734e"/>
      <path id="Path_2709" data-name="Path 2709" d="M607.814,243.266l10.519-8.414c-8.172-.9-11.53,3.555-12.9,7.083-6.384-2.651-13.335.823-13.335.823l21.047,7.641a15.927,15.927,0,0,0-5.331-7.133Z" transform="translate(-136.087 -234.734)" fill="#98734e"/>
      <path id="Path_2710" data-name="Path 2710" d="M872.576,258.932l10.519-8.414c-8.172-.9-11.53,3.555-12.9,7.083-6.384-2.651-13.335.823-13.335.823l21.047,7.641a15.926,15.926,0,0,0-5.328-7.134Z" transform="translate(-136.087 -234.734)" fill="#98734e"/>
      <path id="Path_2712" data-name="Path 2712" d="M425.411,649.546a15.907,15.907,0,0,0-7.966,2.138,17.12,17.12,0,0,0-28.6,12.718h52.507a15.987,15.987,0,0,0-15.94-14.855Z" transform="translate(-136.087 -234.734)" fill="#98734e"/>
      <path id="Path_2713" data-name="Path 2713" d="M698.52,649.546a15.908,15.908,0,0,0-7.966,2.138,17.12,17.12,0,0,0-28.6,12.718h52.507a15.987,15.987,0,0,0-15.941-14.856Z" transform="translate(-136.087 -234.734)" fill="#98734e"/>
      <g id="Group_204" data-name="Group 204">
        <path id="Path_2714" data-name="Path 2714" d="M563.99,638.084H489.4v2.406h11.632v22.857h2.406V640.49h45.306v22.857h2.406V640.49h12.835Z" transform="translate(-136.087 -234.734)" fill="#98734e"/>
        <rect id="Rectangle_400" data-name="Rectangle 400" width="74.586" height="2.406" transform="translate(353.463 396.151)" fill="#98734e"/>
        <rect id="Rectangle_401" data-name="Rectangle 401" width="74.586" height="2.406" transform="translate(353.463 390.136)" fill="#98734e"/>
      </g>
      <ellipse id="Ellipse_525" data-name="Ellipse 525" cx="29.118" cy="59.413" rx="29.118" ry="59.413" transform="translate(844.7 273.961)" fill="#e6e6e6"/>
      <path id="Path_2716" data-name="Path 2716" d="M1006.66,665.266c11.647-69.878.117-139.5,0-140.2l-1.16.2c.117.693,11.613,70.13,0,139.808Z" transform="translate(-136.087 -234.734)" fill="#98734e"/>
      <rect id="Rectangle_406" data-name="Rectangle 406" width="1.177" height="29.872" transform="translate(847.355 322.116) rotate(-61.847)" fill="#98734e"/>
      <rect id="Rectangle_407" data-name="Rectangle 407" width="29.872" height="1.177" transform="translate(875.153 342.248) rotate(-28.153)" fill="#98734e"/>
      <g id="Group_202" data-name="Group 202">
        <path id="Path_2721" data-name="Path 2721" d="M974.8,639.347a1.77,1.77,0,0,1-1.677-.085c-.128-.078-.232.13-.1.208a1.983,1.983,0,0,0,1.855.1.121.121,0,0,0,.074-.147.117.117,0,0,0-.146-.078Z" transform="translate(-136.087 -234.734)" fill="#fff"/>
        <path id="Path_2749" data-name="Path 2749" d="M938.012,617.311a2.715,2.715,0,0,0,.746-4.095l3.156-24.522-5.9.248-1.245,24.026a2.729,2.729,0,0,0,3.243,4.343Z" transform="translate(-136.087 -234.734)" fill="#ffb6b6"/>
        <path id="Path_2750" data-name="Path 2750" d="M965.459,588.691l.758,12.538L961.1,614.743l-2.445-3.615,2.33-13.147-.646-8.411Z" transform="translate(-136.087 -234.734)" fill="#ffb6b6"/>
        <path id="Path_2751" data-name="Path 2751" d="M958.133,627.349l.628,32.23-2.755.427-5.955-32.987Z" transform="translate(-136.087 -234.734)" fill="#ffb6b6"/>
        <path id="Path_2752" data-name="Path 2752" d="M940.265,628.907l4.312,31.946h2.788l.836-33.51Z" transform="translate(-136.087 -234.734)" fill="#ffb6b6"/>
        <circle id="Ellipse_528" data-name="Ellipse 528" cx="5.733" cy="5.733" r="5.733" transform="translate(806.559 326.101)" fill="#ffb6b6"/>
        <path id="Path_2754" data-name="Path 2754" d="M958.834,609.371,961.24,615l-2.406,7.569V630.4l-9.213.055-.2-9.634-1.24,9.634H938.8l-1.736-19.31,2.491-4.57Z" transform="translate(-136.087 -234.734)" fill="#2f2e41"/>
        <path id="Path_2755" data-name="Path 2755" d="M946.538,574.179l-.678,1.256s-5.846,1.139-8.8,4.357l3.965,8.1-3.672,23.445L959,609.894l.768-18.051,3.258-12.625s-5.647-3.873-8.084-3.466l-.853-1.568Z" transform="translate(-136.087 -234.734)" fill="#ffdd6b"/>
        <path id="Path_2756" data-name="Path 2756" d="M942.622,580.636l-5.564-.843s-1.523,8.935-1.511,10.975l6.716,1.071Z" transform="translate(-136.087 -234.734)" fill="#ffdd6b"/>
        <path id="Path_2757" data-name="Path 2757" d="M960.368,579.782l2.659-.57s1.026,3.255,2.718,10.921l-6.912,2.412Z" transform="translate(-136.087 -234.734)" fill="#ffdd6b"/>
        <path id="Path_2758" data-name="Path 2758" d="M947.907,662.949H937.894v-.127a3.9,3.9,0,0,1,3.9-3.9h6.113Z" transform="translate(-136.087 -234.734)" fill="#2f2e41"/>
        <path id="Path_2759" data-name="Path 2759" d="M959.972,661.417l-9.894,1.532-.019-.125a3.9,3.9,0,0,1,3.255-4.447h0l6.043-.936Z" transform="translate(-136.087 -234.734)" fill="#2f2e41"/>
        <path id="Path_2800" data-name="Path 2800" d="M950.627,568.9a8.206,8.206,0,0,0-1.348-.351,3.063,3.063,0,0,1-2.343-3.453,1.557,1.557,0,0,0,.084-.569c-.06-.426-.559-.7-1.037-.8a11.511,11.511,0,0,1-1.444-.24,1.953,1.953,0,0,1-1.276-1.532,2.844,2.844,0,0,1,.484-1.908l.173.434a1.617,1.617,0,0,0,.564-.738,1.143,1.143,0,0,1,.886.622c.277.143.317-.444.624-.53a.612.612,0,0,1,.382.082,3.5,3.5,0,0,0,2-.1,8.574,8.574,0,0,1,3.489,0,4.415,4.415,0,0,1,2.062.927,4.234,4.234,0,0,1,.961,1.445,7.412,7.412,0,0,1,.778,4.051,5.419,5.419,0,0,1-1.547,3.038c-.442.445-1.883,2-2.673,1.731C950.454,570.674,951.8,569.439,950.627,568.9Z" transform="translate(-136.087 -234.734)" fill="#2f2e41"/>
      </g>
      <g id="Group_203" data-name="Group 203">
        <path id="Path_2809" data-name="Path 2809" d="M877.494,615.079a1.954,1.954,0,0,0,.465-2.959l2.539-25.476-4.239.281-1.174,25.086a1.964,1.964,0,0,0,2.41,3.068Z" transform="translate(-136.087 -234.734)" fill="#feb8b8"/>
        <path id="Path_2810" data-name="Path 2810" d="M874.541,585.7l1.111,8.447-.154,5.177,4.663.427.934-4.306.515-11.4a3.4,3.4,0,0,0-3.006-3.533h0a3.4,3.4,0,0,0-3.765,2.933Z" transform="translate(-136.087 -234.734)" fill="#2f2e41"/>
        <path id="Path_2811" data-name="Path 2811" d="M892.4,660.022h2.825l1.345-10.909h-4.174Z" transform="translate(-136.087 -234.734)" fill="#feb8b8"/>
        <path id="Path_2812" data-name="Path 2812" d="M891.675,662.765h9.12v-.115a3.55,3.55,0,0,0-3.549-3.55h-5.57Z" transform="translate(-136.087 -234.734)" fill="#2f2e41"/>
        <path id="Path_2813" data-name="Path 2813" d="M869.042,660.022h2.828l1.346-10.909h-4.174Z" transform="translate(-136.087 -234.734)" fill="#feb8b8"/>
        <path id="Path_2814" data-name="Path 2814" d="M868.321,662.765h9.12v-.115a3.55,3.55,0,0,0-3.549-3.55h-5.57Z" transform="translate(-136.087 -234.734)" fill="#2f2e41"/>
        <circle id="Ellipse_532" data-name="Ellipse 532" cx="6.132" cy="6.132" r="6.132" transform="translate(737.821 329.497)" fill="#feb8b8"/>
        <path id="Path_2815" data-name="Path 2815" d="M880.833,578.985l-4.255.486h0A11.324,11.324,0,0,0,875.13,589.7l3.211,9.289s-4.457,8.936-4.457,17.232-8.489,37.91-8.489,37.91l11.949,1.246,5.214-31.547,7.185,31.42,8.2-1.335-4.517-41.2-2.985-13.559-.126-6.6s1.269-4.962-1.907-8.138l-3.878-5.4Z" transform="translate(-136.087 -234.734)" fill="#2f2e41"/>
        <path id="Path_2816" data-name="Path 2816" d="M887.188,568.174h-9.014v-3.928c1.978-.786,3.913-1.454,5.083,0a3.928,3.928,0,0,1,3.928,3.928Z" transform="translate(-136.087 -234.734)" fill="#2f2e41"/>
        <path id="Path_2817" data-name="Path 2817" d="M877.683,563.553c-5.387,0-6.9,6.752-6.9,10.561,0,2.124.961,2.884,2.47,3.141l.533-2.843,1.249,2.966c.424,0,.87-.006,1.331-.015l.423-.872.944.856c3.781.006,6.838.557,6.838-3.233C884.574,570.306,883.252,563.553,877.683,563.553Z" transform="translate(-136.087 -234.734)" fill="#2f2e41"/>
        <path id="Path_2818" data-name="Path 2818" d="M885.646,600.848l.228-9.891.6-4.391,1.494,4.35Z" transform="translate(-136.087 -234.734)" opacity="0.2"/>
        <path id="Path_5" data-name="Path 5" d="M875.313,599.029h0a5.4,5.4,0,0,1-5.385-5.391V583.515a5.4,5.4,0,0,1,5.385-5.386,7.279,7.279,0,0,1,7.271,7.27v6.358a7.279,7.279,0,0,1-7.271,7.271Z" transform="translate(-136.087 -234.734)" fill="#ffdd6b"/>
        <path id="Path_2822" data-name="Path 2822" d="M887.311,591.911a9.417,9.417,0,0,0,2.018-6.03c0-4.39-2.615-7.961-5.829-7.961a5.36,5.36,0,0,0-4.46,2.829l.484.3a4.808,4.808,0,0,1,3.976-2.559c2.9,0,5.26,3.316,5.26,7.393a8.843,8.843,0,0,1-1.883,5.662Z" transform="translate(-136.087 -234.734)" fill="#ffdd6b"/>
        <path id="Path_2823" data-name="Path 2823" d="M884.548,616.107a2.141,2.141,0,0,0,.333-3.265l1.263-28.024-4.621.56.206,27.516a2.152,2.152,0,0,0,2.819,3.213Z" transform="translate(-136.087 -234.734)" fill="#feb8b8"/>
        <path id="Path_2824" data-name="Path 2824" d="M879.571,584.14l1.718,9.176.139,5.673,5.126.19.766-4.766-.114-12.5a3.727,3.727,0,0,0-3.5-3.686h0a3.727,3.727,0,0,0-3.945,3.433Z" transform="translate(-136.087 -234.734)" fill="#2f2e41"/>
      </g>
      <g id="Group_205" data-name="Group 205">
        <path id="Path_2714-2" data-name="Path 2714-2" d="M837.1,638.084H762.51v2.406h11.632v22.857h2.406V640.49h45.306v22.857h2.406V640.49H837.1Z" transform="translate(-136.087 -234.734)" fill="#98734e"/>
        <rect id="Rectangle_400-2" data-name="Rectangle 400-2" width="74.586" height="2.406" transform="translate(626.57 396.151)" fill="#98734e"/>
        <rect id="Rectangle_401-2" data-name="Rectangle 401-2" width="74.586" height="2.406" transform="translate(626.57 390.136)" fill="#98734e"/>
      </g>
      <circle id="Ellipse_533" data-name="Ellipse 533" cx="5.318" cy="5.318" r="5.318" transform="translate(410.837 365.914)" fill="#a0616a"/>
      <g id="Group_206" data-name="Group 206">
        <path id="Path_2833" data-name="Path 2833" d="M562.779,660.124H565.5l1.3-10.5h-4.022Z" transform="translate(-136.087 -234.734)" fill="#a0616a"/>
        <path id="Path_2834" data-name="Path 2834" d="M562.086,659.236h5.361a3.417,3.417,0,0,1,3.417,3.416v.111h-8.778Z" transform="translate(-136.087 -234.734)" fill="#2f2e41"/>
        <path id="Path_2835" data-name="Path 2835" d="M552.244,654.543l-2.206,1.6-7.2-7.748,3.255-2.355Z" transform="translate(-136.087 -234.734)" fill="#a0616a"/>
        <path id="Path_2836" data-name="Path 2836" d="M554.352,656.28l-7.112,5.146-.065-.09a3.417,3.417,0,0,1,.765-4.771h0l4.344-3.143Z" transform="translate(-136.087 -234.734)" fill="#2f2e41"/>
        <path id="Path_2837" data-name="Path 2837" d="M555.221,613.73a5.2,5.2,0,0,0-5.945,0l-2.137,17.828h6.418l.951-5.7,2.139-8.557Z" transform="translate(-136.087 -234.734)" fill="#ffdd6b"/>
        <path id="Path_2838" data-name="Path 2838" d="M561.651,641.265,550.132,637.5l-5.491,4.357,5.834,8.918-3.051,4-.087-.1c-.379-.431-9.271-10.593-9.245-13.475a21.681,21.681,0,0,1,.982-5.76l2.889-4.1,4.1-1.206,13.572,1.9h.022l5.484,3.338a4.308,4.308,0,0,1,1.952,3.183c.235,2.119.709,19.092.714,19.263v.111h-5.914Z" transform="translate(-136.087 -234.734)" fill="#2f2e41"/>
        <path id="Path_2839" data-name="Path 2839" d="M554.349,637.005c-2-.89-4.559-4.364-4.98-4.95-.824.448-6.831,3.659-8.525,2.834a3.145,3.145,0,0,0-1.558,1.8l-.05.251-.145-.211c-.027-.039-2.636-3.919.739-6.33a10.55,10.55,0,0,0,3.992-4.673l-1.67-8.826.044-.041c.137-.127,3.388-3.118,6.354-3.474l1.83-.323.08,6.966v8.918c1.478-.186,3.817-15.768,3.817-15.768l1.222.448c.316.061,3.865.77,4.807,2.182l.031.046-3.228,8.728L556.165,626v1.819l5.516,4.8-.078.082c-.188.2-4.255,4.427-6.624,4.426A1.535,1.535,0,0,1,554.349,637.005Z" transform="translate(-136.087 -234.734)" fill="#98734e"/>
        <path id="Path_2840" data-name="Path 2840" d="M550.9,638.59a2.082,2.082,0,0,1,2.685-1.727l3.048-3.654,2.672,1.311-4.377,5.1a2.093,2.093,0,0,1-4.028-1.029Z" transform="translate(-136.087 -234.734)" fill="#a0616a"/>
        <path id="Path_2841" data-name="Path 2841" d="M553.058,635.492l4.782-6.455-1.184-6.4,1.922-7.206.048-.021a2.479,2.479,0,0,1,1.658-.114,1.121,1.121,0,0,1,.624.648c.476,1.189,1.623,13.3,1.671,13.838a13.681,13.681,0,0,1-.724,3.366c-.477.953-4.824,5.762-5.008,5.967l-.076.084Z" transform="translate(-136.087 -234.734)" fill="#98734e"/>
        <path id="Path_2842" data-name="Path 2842" d="M556.811,604.6c-1.77,2.226-4.8,1.818-7.231,1a7.693,7.693,0,0,1-1.369,5.022c.313-1.263-1.007-1.514-1.778-1.984-.3-.376-.05-.936-.172-1.4-1.384-1.622-2.3-2.846-.524-4.75,1.04-1.392,2.288-3.129,4.269-2.764,1.568-1.829,4.136-1.353,5.889-.074a12.516,12.516,0,0,1,2.136,2.007,8.5,8.5,0,0,1-1.109,2.786" transform="translate(-136.087 -234.734)" fill="#2f2e41"/>
        <path id="Path_2845" data-name="Path 2845" d="M552.746,640.144a2.082,2.082,0,0,0-2.685-1.727l-3.048-3.654-2.672,1.311,4.377,5.1a2.093,2.093,0,0,0,4.028-1.029Z" transform="translate(-136.087 -234.734)" fill="#a0616a"/>
        <path id="Path_2846" data-name="Path 2846" d="M546.836,639.489c-.273-.2-6.684-5.024-7.4-6.456s-.54-5.684-.53-5.877a69.6,69.6,0,0,1,2.072-9.068,2.627,2.627,0,0,1,3.391-1.518l.078.031.074.03-1.073,12.518,5.853,7.764-2.384,2.635Z" transform="translate(-136.087 -234.734)" fill="#98734e"/>
      </g>
      <path id="Path_2700" data-name="Path 2700" d="M537.551,368.48l-8.968-20.806-18,.321-10.92,20.742.22.277H499.8v43.144h37.724V369.014Z" transform="translate(-136.087 -234.734)" fill="#f2f2f2"/>
      <path id="Path_2700-2" data-name="Path 2700" d="M817.916,420.557l-7.247-15.208-14.547.234L787.3,420.745l.178.2h-.063v31.536H817.9V420.947Z" transform="translate(-136.087 -234.734)" fill="#f2f2f2"/>
      <rect id="Rectangle_5" data-name="Rectangle 5" width="211.472" height="2" transform="translate(120.268 103.854)" fill="#fff"/>
      <rect id="Rectangle_6" data-name="Rectangle 6" width="211.472" height="2" transform="translate(99.268 124.854)" fill="#fff"/>
      <rect id="Rectangle_7" data-name="Rectangle 7" width="34.47" height="2" transform="translate(690.184 128.645)" fill="#fff"/>
      <rect id="Rectangle_8" data-name="Rectangle 8" width="34.47" height="2" transform="translate(690.184 149.645)" fill="#fff"/>
      <rect id="Rectangle_9" data-name="Rectangle 9" width="41.83" height="2" transform="translate(407.134 64.645)" fill="#fff"/>
      <rect id="Rectangle_10" data-name="Rectangle 10" width="41.83" height="2" transform="translate(407.134 85.645)" fill="#fff"/>
    </g>
  </g>
</svg>
